<svg xmlns="http://www.w3.org/2000/svg" xmlns:xlink="http://www.w3.org/1999/xlink" viewBox="0 0 23.537 22.496">
  <defs>
    <style>
      .cls-1, .cls-3 {
        fill: #cbcbcb;
      }

      .cls-1 {
        stroke: #707070;
      }

      .cls-2 {
        clip-path: url(#clip-path);
      }
    </style>
    <clipPath id="clip-path">
      <rect id="Rectangle_250" data-name="Rectangle 250" class="cls-1" width="23.537" height="22.496"/>
    </clipPath>
  </defs>
  <g id="activité" class="cls-2">
    <path id="box-open" class="cls-3" d="M1.523,1.862.542,6.752c-.164.4-.349.858,0,.978L7.407,9.686c.253.086.845.271.981,0L11.33,2.84,2.5,1.862C2.258,1.827,1.633,1.595,1.523,1.862ZM23.1,6.752l-1.961-4.89c-.11-.267-.735-.039-.981,0L11.33,2.84l2.942,6.847c.135.271.728.086.981,0L22.118,7.73C22.47,7.605,23.259,7.148,23.1,6.752Zm-7.846,4.89a2.461,2.461,0,0,1-1.961-.978L11.33,5.774l-1.961,4.89a2.454,2.454,0,0,1-1.961.978c-.16,0,.153.056,0,0L2.5,9.686v7.825c0,.632.475.827.981.978l7.846,2.934a1.53,1.53,0,0,0,.981,0l6.865-2.934c.506-.155.981-.35.981-.978V9.686l-4.9,1.956C15.1,11.7,15.413,11.643,15.253,11.643Z" transform="translate(0.438 0.094)"/>
  </g>
</svg>
