<svg xmlns="http://www.w3.org/2000/svg" xmlns:xlink="http://www.w3.org/1999/xlink" viewBox="0 0 20 21.25">
  <defs>
    <style>
      .cls-1, .cls-3 {
        fill: #cbcbcb;
      }

      .cls-1 {
        stroke: #707070;
      }

      .cls-2 {
        clip-path: url(#clip-path);
      }
    </style>
    <clipPath id="clip-path">
      <rect id="Rectangle_248" data-name="Rectangle 248" class="cls-1" width="20" height="21.25" transform="translate(14 678)"/>
    </clipPath>
  </defs>
  <g id="calendrier" class="cls-2" transform="translate(-14 -678)">
    <path id="calendar-alt" class="cls-3" d="M19.464,6.641H.536A.519.519,0,0,1,0,6.143V4.649A2.072,2.072,0,0,1,2.143,2.656H4.286V.5A.519.519,0,0,1,4.821,0H6.607a.519.519,0,0,1,.536.5V2.656h5.714V.5a.519.519,0,0,1,.536-.5h1.786a.519.519,0,0,1,.536.5V2.656h2.143A2.072,2.072,0,0,1,20,4.649V6.143A.519.519,0,0,1,19.464,6.641ZM.536,7.969H19.464a.519.519,0,0,1,.536.5V19.258a2.072,2.072,0,0,1-2.143,1.992H2.143A2.072,2.072,0,0,1,0,19.258V8.467A.519.519,0,0,1,.536,7.969Zm5.179,8.467a.519.519,0,0,0-.536-.5H3.393a.519.519,0,0,0-.536.5V18.1a.519.519,0,0,0,.536.5H5.179a.519.519,0,0,0,.536-.5Zm0-5.313a.519.519,0,0,0-.536-.5H3.393a.519.519,0,0,0-.536.5v1.66a.519.519,0,0,0,.536.5H5.179a.519.519,0,0,0,.536-.5Zm5.714,5.313a.519.519,0,0,0-.536-.5H9.107a.519.519,0,0,0-.536.5V18.1a.519.519,0,0,0,.536.5h1.786a.519.519,0,0,0,.536-.5Zm0-5.313a.519.519,0,0,0-.536-.5H9.107a.519.519,0,0,0-.536.5v1.66a.519.519,0,0,0,.536.5h1.786a.519.519,0,0,0,.536-.5Zm5.714,5.313a.519.519,0,0,0-.536-.5H14.821a.519.519,0,0,0-.536.5V18.1a.519.519,0,0,0,.536.5h1.786a.519.519,0,0,0,.536-.5Zm0-5.313a.519.519,0,0,0-.536-.5H14.821a.519.519,0,0,0-.536.5v1.66a.519.519,0,0,0,.536.5h1.786a.519.519,0,0,0,.536-.5Z" transform="translate(14 678)"/>
  </g>
</svg>
