<svg xmlns="http://www.w3.org/2000/svg" xmlns:xlink="http://www.w3.org/1999/xlink" viewBox="0 0 25 22">
  <defs>
    <style>
      .cls-1, .cls-3 {
        fill: #cbcbcb;
      }

      .cls-1 {
        stroke: #707070;
      }

      .cls-2 {
        clip-path: url(#clip-path);
      }
    </style>
    <clipPath id="clip-path">
      <rect id="Rectangle_247" data-name="Rectangle 247" class="cls-1" width="25" height="22" transform="translate(17 478)"/>
    </clipPath>
  </defs>
  <g id="_" data-name="?" class="cls-2" transform="translate(-17 -478)">
    <path id="question-circle" class="cls-3" d="M11.355.355a11,11,0,1,0,11,11A11,11,0,0,0,11.355.355Zm0,19.871a8.871,8.871,0,1,1,8.871-8.871A8.866,8.866,0,0,1,11.355,20.226ZM16.112,8.906c0,2.974-3.212,3.02-3.212,4.119v.281a.532.532,0,0,1-.532.532H10.342a.532.532,0,0,1-.532-.532v-.384c0-1.585,1.2-2.219,2.11-2.729.779-.437,1.256-.734,1.256-1.312,0-.765-.976-1.273-1.765-1.273-1.029,0-1.5.487-2.171,1.329a.533.533,0,0,1-.739.094L7.268,8.1a.533.533,0,0,1-.117-.726,4.986,4.986,0,0,1,4.461-2.4C13.788,4.968,16.112,6.667,16.112,8.906Zm-2.894,7.416a1.863,1.863,0,1,1-1.863-1.863A1.865,1.865,0,0,1,13.218,16.323Z" transform="translate(18.145 477.645)"/>
  </g>
</svg>
