<svg xmlns="http://www.w3.org/2000/svg" xmlns:xlink="http://www.w3.org/1999/xlink" viewBox="0 0 28.906 25.052">
  <defs>
    <style>
      .cls-1, .cls-3 {
        fill: #cbcbcb;
      }

      .cls-1 {
        stroke: #707070;
      }

      .cls-2 {
        clip-path: url(#clip-path);
      }
    </style>
    <clipPath id="clip-path">
      <rect id="Rectangle_243" data-name="Rectangle 243" class="cls-1" width="28.906" height="25.052" transform="translate(12 175)"/>
    </clipPath>
  </defs>
  <g id="messagerie" class="cls-2" transform="translate(-12 -175)">
    <path id="comments" class="cls-3" d="M26.695,19.439A6.909,6.909,0,0,0,28.9,14.512c0-4.014-3.839-7.331-8.841-7.923C18.48,3.7,14.767,1.666,10.437,1.666,4.672,1.666,0,5.259,0,9.695a6.927,6.927,0,0,0,2.208,4.927A13.138,13.138,0,0,1,.316,17.377a1.161,1.161,0,0,0,.843,1.957,11.534,11.534,0,0,0,6.282-1.947,14.3,14.3,0,0,0,1.425.246c1.576,2.88,5.274,4.907,9.6,4.907a13.282,13.282,0,0,0,3-.341,11.561,11.561,0,0,0,6.282,1.947,1.161,1.161,0,0,0,.843-1.957A12.788,12.788,0,0,1,26.695,19.439ZM6.985,14.808l-.858.557a10.21,10.21,0,0,1-2.163,1.074c.135-.236.271-.487.4-.743l.778-1.561L3.9,12.906a4.6,4.6,0,0,1-1.49-3.211c0-3.046,3.678-5.62,8.028-5.62s8.028,2.574,8.028,5.62-3.678,5.62-8.028,5.62a10.934,10.934,0,0,1-2.459-.281l-.994-.226ZM25,17.723l-1.239,1.224.778,1.561c.13.256.266.507.4.743a10.21,10.21,0,0,1-2.163-1.074l-.858-.557-1,.231a10.934,10.934,0,0,1-2.459.281,9.337,9.337,0,0,1-6.588-2.494c5.083-.542,9-3.884,9-7.943,0-.171-.02-.336-.035-.5,3.231.728,5.655,2.85,5.655,5.319A4.6,4.6,0,0,1,25,17.723Z" transform="translate(12 174.62)"/>
  </g>
</svg>
