<svg xmlns="http://www.w3.org/2000/svg" xmlns:xlink="http://www.w3.org/1999/xlink" viewBox="0 0 25 25.926">
  <defs>
    <style>
      .cls-1, .cls-3 {
        fill: #cbcbcb;
      }

      .cls-1 {
        stroke: #707070;
      }

      .cls-2 {
        clip-path: url(#clip-path);
      }
    </style>
    <clipPath id="clip-path">
      <rect id="Rectangle_245" data-name="Rectangle 245" class="cls-1" width="25" height="25.926" transform="translate(16 684)"/>
    </clipPath>
  </defs>
  <g id="service" class="cls-2" transform="translate(-16 -684)">
    <path id="street-view" class="cls-3" d="M17.964,16.1a3.122,3.122,0,0,1-.776.667v1.12c3.248.456,5.469,1.37,5.469,2.424,0,1.51-4.547,2.734-10.156,2.734S2.344,21.823,2.344,20.313c0-1.055,2.221-1.968,5.469-2.424v-1.12a3.122,3.122,0,0,1-.776-.667C2.875,16.862,0,18.459,0,20.313,0,22.9,5.6,25,12.5,25S25,22.9,25,20.313C25,18.459,22.125,16.862,17.964,16.1ZM12.5,6.25A3.125,3.125,0,1,0,9.375,3.125,3.125,3.125,0,0,0,12.5,6.25ZM9.375,15.625v4.688a1.563,1.563,0,0,0,1.563,1.563h3.125a1.563,1.563,0,0,0,1.563-1.562V15.625a1.563,1.563,0,0,0,1.563-1.562V9.375a2.344,2.344,0,0,0-2.344-2.344h-.576a4.194,4.194,0,0,1-3.535,0h-.576A2.344,2.344,0,0,0,7.813,9.375v4.688A1.563,1.563,0,0,0,9.375,15.625Z" transform="translate(16 684.463)"/>
  </g>
</svg>
